<svg
    xmlns="http://www.w3.org/2000/svg"
    width="1024" height="1024" version="1.0"
    viewBox="100 100 900 900">
    <path
        fill="#0b4b07"
        d="M481 239.5c-29.2 3.8-59.6 12.5-85.6 24.5-17.7 8.2-43.4 24.3-60.8 38.2-22.1 17.7-47 45.8-63 71.3-15.6 24.7-31 63.8-36.5 92.8-6.2 32.7-6 72.3.5 104.2 2.5 12.4 8.5 32.6 13.6 46.5 16.8 45 48.7 88.7 87.8 120.1 16.7 13.3 42.2 28.6 63.3 37.9 40 17.5 70.6 24 113.6 24 43.3 0 80.8-8.8 120.6-28.4 45-22.2 79.2-51.6 109.7-94.3 22.5-31.5 40.5-78.2 47.4-122.8 2.7-17.1 2.7-59.3.1-75-7.7-46.2-25.9-89.4-52.9-126-9.5-12.8-36.7-40.5-50.8-51.7-44-34.9-92.6-55.4-145.3-61.3-15.8-1.8-48.3-1.8-61.7 0zm-31.5 14c-22.2 5.7-34.9 10.1-52.4 18.6-24.7 11.9-46.1 25.9-64.6 42.2-15.3 13.5-16.9 15-23.9 22.7-3.8 4.1-5.3 5.5-3.5 3 1.9-2.5 7.5-8.6 12.4-13.6 35.2-35.4 85.7-63.7 133.5-74.8 17.6-4.1 16.6-2.7-1.5 1.9zm90.2 13.5c4.3.6 12 2 17 3 5.1 1.1 9.5 2 9.7 2 .2 0-2.8 12.3-6.6 27.2-3.9 15-7.8 30.7-8.7 34.8-1.9 8.6-.3 8.1-16.9 6.2-14.2-1.6-32.5-1.5-44.9.4-5.8.8-11.4 1.4-12.5 1.2-1.6-.3-2.7-3.2-6.9-19.8-2.8-10.7-6.8-26.2-8.9-34.5-2.2-8.2-3.6-15.3-3.2-15.7.4-.4 7.7-1.8 16.2-3.1 12.7-2.1 19.3-2.5 36.7-2.6 11.6-.1 24.7.4 29 .9zm81.8 22.5c6.1 3 12.3 6.4 13.8 7.7l2.8 2.3-2.6 4.8c-2.6 4.6-2.8 4.7-4.9 3.3-2.2-1.4-2.5-1-13.4 17.7-6.1 10.6-11.6 19.8-12.1 20.6-.7 1.1-2.5.6-9.5-2.7-8.6-4.1-19.7-8.2-22.3-8.2-.7 0-1.3-.8-1.3-1.8 0-1.6 6.1-24.7 12.6-47.4l2.7-9.6 11.6 4c6.4 2.2 16.6 6.4 22.6 9.3zm-184.1-10.8c1.5 5.4 1.7 8.5.6 9.8-1.4 1.7.4 9.3 7.1 29.9 2.7 8.2 4.9 15.3 4.9 15.8 0 .4-1.2 1.1-2.7 1.4-4.9 1.2-15.5 5.7-22.6 9.6-3.9 2.1-7.3 3.8-7.7 3.8-.4 0-4.3-6-8.7-13.3-4.5-7.2-11.5-18.3-15.7-24.5-4.2-6.2-7.6-11.6-7.6-12.1 0-1.5 26.7-14.1 38-18 13.4-4.6 13.7-4.6 14.4-2.4zm221.6 34c10 6.8 39 33.5 39 35.8 0 .6-3.7 4.6-8.2 8.7-4.6 4.1-16.1 15-25.7 24.2L646.7 398l-8.6-8.3c-4.7-4.6-11.2-10.3-14.3-12.6-3.2-2.4-5.8-4.7-5.8-5.2s3.9-7.1 8.7-14.7c4.7-7.5 12.5-20 17.3-27.7 11.3-18.3 11.4-18.5 12-18.5.3 0 1.7.8 3 1.7zm-282.8 12c10.6 16 28.2 43.1 29.6 45.8.9 1.9.1 2.8-8.1 9.2-5.1 4-11.6 9.7-14.6 12.7l-5.4 5.5-14.6-13.7c-8-7.6-19.8-18.5-26.1-24.2-6.3-5.7-11.6-10.7-11.8-11-.9-1.9 38.3-36.9 41.4-37 .6 0 4.9 5.7 9.6 12.7zm334.3 45.8c-2 2.6-3.3 5-2.9 5.6.4.7.3.9-.3.6-.6-.4-3.9 2.1-7.4 5.6-7.1 6.9-14.8 13.5-22.4 19.2-2.7 2.1-5.2 3.9-5.3 4.1-.2.1 2 3.7 4.9 8 6.1 9.1 12.8 22.8 16.3 33.5 3.9 12.1 3.9 12-1.9 13.5-2.7.7-5.2 1-5.6.6-.3-.4-1.2-2.7-2-5.2-2.1-7-12.2-26.6-18.3-35.9-3.1-4.6-5.6-8.5-5.6-8.6 0-.2 8.4-7.5 18.8-16.3 10.3-8.8 22.3-19.4 26.7-23.5 8.5-7.9 11.1-8.6 5-1.2zM524.3 366c22.3 2.2 47.5 10.2 64.6 20.5 46.8 28.3 75.6 75.6 77.8 127.6 1.8 44.8-11.2 80.6-41.8 114.6-21.2 23.6-49.1 39.5-81.4 46.4-9.5 2.1-13.7 2.4-31.5 2.4-23.4 0-32.6-1.3-49.3-7.2-14.1-4.9-22.9-9.2-34.9-17.2-39-26-63.9-65.7-69.9-111.6-1.6-12.1-.6-37.2 2-49.5 3.9-19.3 12.3-38.8 24.3-56.7 9.2-13.8 30.4-35.3 43-43.7 29.8-19.7 64.2-28.8 97.1-25.6zm-203.4 8.3c4.7 4.5 13.1 12.3 18.6 17.2 5.5 4.9 11.1 9.9 12.4 11.1l2.4 2.2-4.3 4.9c-6.3 7.2-16.1 24.8-20.9 37.5l-1 2.6-4.8-1.5c-17.7-5.5-37.8-11.3-39.3-11.3-1.3 0-2.1 1.3-2.9 4.6-1 4.1-1.4 4.5-3.4 4-1.2-.4-3.5-.9-5-1.3-1.6-.3-3.1-1.2-3.4-2-1.5-4 14.9-40.8 24.7-55.3 6-8.9 15.9-21 17.2-21 .6 0 4.9 3.7 9.7 8.3zM290.5 472c13.8 3.3 28.2 6.9 32 8l7 1.8H323c-7.4 0-17.4-1.7-33.5-5.8-6-1.5-12.2-3-13.6-3.4-2.6-.6-2.7-.3-4.3 6-5.9 23.3-6.1 59.4-.5 84.9 1 4.9 1.6 9.2 1.1 9.6-1.3 1.1-10.2 3.2-10.9 2.5-2-2-5.4-28.5-6-47.1-.6-21.3.3-33.2 3.8-50.5 2.6-12.7 2.8-13.2 4.7-12.6.9.3 13 3.3 26.7 6.6zm472-6.1c-.3.5-2.7 1.7-5.3 2.7-2.6.9-5.1 2.1-5.5 2.5-.5.4-.2 4.2.7 8.5 2.5 12.9 2.6 13.3 3.2 27.9.7 14.2-.6 35-3 47.5-1.4 7.5-.3 7.3-15.6 3.3-10.4-2.7-12.2-3.2-16-3.9-1.4-.3-5.3-1.3-8.8-2.4-6.9-2-6.6-2.2-7.7 4.2-.3 2.1-.7 3.8-.9 3.8-.1 0-2.6-.7-5.6-1.6l-5.3-1.6.6-5.1c.3-2.9 1.1-9.3 1.8-14.2 1.4-10.7.6-37.5-1.5-48.3-.7-4-1-7.4-.7-7.6.3-.2 11.6-2.9 25.1-6.1 13.5-3.1 28.3-6.7 33-8 9.5-2.5 12.4-2.9 11.5-1.6zM337 579c0 .5-.5 1-1 1-.6 0-4.3 1.5-8.3 3.4-5.7 2.6-35.3 12.9-46.4 16.1-2.2.6-2.2.7-.6 4.8 3.8 9.8 18.9 38.4 24 45.5l5.6 7.7-4.9-4.4c-8.3-7.6-24.8-25.5-27.8-30.2-3.2-5.1-10.7-23.2-9.9-23.9.5-.4 4.2-1.7 8.3-2.9 12.6-3.7 50.3-15.2 54.5-16.6 4.9-1.7 6.5-1.8 6.5-.5zm368.9 4.9c10.2 3.3 23.4 7.3 29.2 9 5.8 1.7 12.1 3.7 14 4.6l3.4 1.4-4.5-.5-4.6-.6-3.8 10.3c-5.3 14.5-9 22-16.6 34-7.8 12.3-17.3 23.9-13 15.8.9-1.6.7-1.9-.9-1.9-1.5 0-1.9.5-1.4 1.7.8 2.2-5.8-2.8-8.8-6.6-1.1-1.4-1.8-1.9-1.4-1.1.4.8-.7.1-2.3-1.6-1.6-1.7-3.4-3.3-4-3.5-1.2-.4-10.1-7.9-14.6-12.3l-2.9-2.8-1.8 2.3c-1 1.3-2.1 3.2-2.5 4.1-.8 2.6-1.5 2.3-5.9-2.2l-3.8-3.9 6.1-9.3c6.1-9.3 15.3-27.7 18.8-37.6 1-2.8 2-5.2 2.2-5.2.2 0 8.8 2.7 19.1 5.9zM384.6 653c4.2 4.4 10.8 10.4 14.6 13.3 4.6 3.5 6.6 5.7 6.2 6.7-.3.8-3.9 6.7-8 13s-12.2 19.1-18.2 28.4c-5.9 9.3-11.2 17.1-11.7 17.3-2.9.9-43.7-34-43.4-37.2 0-.6 5.3-5.6 11.7-11.3 6.4-5.6 18.2-16.6 26.1-24.2 8-7.7 14.6-14 14.8-14 .1 0 3.7 3.6 7.9 8zm270.9.1c4.4 4.4 13 12.6 19 18.1 6.1 5.6 14.3 13.3 18.3 17.1l7.3 7.1-5.8 5.9c-6.3 6.4-19.8 18.2-30.5 26.5l-6.6 5.2-4.3-6.7c-2.3-3.7-10.9-17-19.1-29.5-8.2-12.5-15.1-23.4-15.4-24.2-.4-1 2.7-4 9-9 5.2-4.2 11.6-10.1 14.2-13.1 2.6-3 5-5.5 5.4-5.5.3 0 4.1 3.6 8.5 8.1zm-209.4 40c4.6 1.7 8.7 3.4 9.2 3.8 1.1 1.1-2.3 10.1-3.8 10.1-.7 0-2 1.9-2.9 4.2-7.3 19.7-8.3 22.8-8.5 26.5-.1.7-.8 1-1.8.7-1.4-.4-1.5-.3-.5.4 1.1.7 1.1 1.7.1 5.3-.7 2.4-1.5 4.7-1.9 5.1-.6.8-11-2.8-12-4-.3-.4-1.2-.8-2-1-3.5-.6-10-3.4-10-4.3 0-.6-.4-.8-.9-.5-.5.3-2.2-.1-3.7-.9-1.6-.8-3.4-1.5-4.1-1.5-.6 0-1.5-.5-1.9-1.2-.5-.7-.3-.8.6-.3.8.5 1.1.4.6-.3-.4-.6-1.3-.9-2-.6-1.3.5-7.6-2.1-7.6-3.1 0-.3 1.5-2.6 3.4-5.2 1.8-2.7 8.6-13.7 15-24.6l11.7-19.7 7.3 4c4.1 2.2 11.1 5.4 15.7 7.1zm161.8 1.6c3.6 6.9 9.4 16.9 12.9 22.2 8.8 13.4 9.7 15.1 8 16.3-1.7 1.2-21.6 10.8-22.4 10.8-.3 0-2.6.9-5.1 2.1-2.5 1.1-6 2.1-7.8 2.2-1.8.1-3.1.5-2.9.8.2.3-1.2 1.1-3.1 1.6l-3.4 1.1-1.6-7.4c-.9-4-1.3-7.9-.9-8.6.4-.7.3-.9-.2-.5-.4.4-1.7-2-2.7-5.5-1-3.5-2.5-8.6-3.4-11.3-.8-2.8-1.7-6.4-2-8-.3-1.7-.9-3.2-1.3-3.5-.4-.3-1.4-2.7-2.3-5.3-1.6-4.7-1.6-4.8.6-5.7 1.2-.5 5.6-2.3 9.7-4 4.1-1.7 10.2-4.6 13.5-6.4 3.3-1.9 6.5-3.4 7-3.5.6 0 3.9 5.6 7.4 12.6zm-96.4 9.7c15.4.1 25.4-.3 30.3-1.3 4-.7 7.5-1.1 7.8-.8.3.2 3.9 14.8 8 32.3 8 33.7 10.9 51.9 8.4 53.4-1.6 1-12.7 2.7-27 4.1-19.7 2.1-68.4-.2-79.2-3.7-3-.9-2.4-14.3 1.2-29.9 5-21.7 13-56.8 13-57 0-.1 3.3.5 7.3 1.3 5.1 1.1 13.7 1.6 30.2 1.6z" />
    <path
        fill="#4B070A"
        d="M506.6 380.9c-1.5 1.7-1.8 3.8-1.7 12.6.1 5.9.6 11.5 1.1 12.5 2.2 4 11.7 2.9 13.4-1.5.3-.9.6-6.1.6-11.6 0-8.6-.3-10.2-2-11.9-2.7-2.7-9-2.7-11.4-.1zM437.2 398.5c-3.8 1.7-5.6 4.8-4.8 8.7.6 3 10.6 18.2 13.4 20.5 2.7 2.2 8 1.6 10.7-1.2 3.9-3.8 3.2-7.1-3.3-17.1-7.8-11.9-10-13.4-16-10.9zM579.3 399.7c-2.2 2-11.4 14.5-13.2 18-3.5 6.9 6.1 14.3 12.6 9.8 3.3-2.3 14.3-18.6 14.3-21.1 0-1.3-1.2-3.6-2.6-5.3-3-3.6-8-4.2-11.1-1.4zM508.7 424.8c-1 1.1-2.2 5.8-3.1 11.7-4.7 31-9.7 59-10.5 59.3-2 .7-8.5 6.3-10.9 9.5-8.6 11.3-9 25.5-1.2 37.6 3.6 5.8 7.8 9.2 15.8 12.9 4.8 2.3 7 2.7 14.2 2.7l8.5-.1 29.5-12.1c40.6-16.7 58.1-24.1 60.7-25.9 3-1.9 3-5.2 0-6.3-2.5-1-22.4-3.2-49.7-5.6-22.2-1.9-22-1.9-24.9-6-1.3-1.9-3.8-4.4-5.6-5.5-3.2-2-3.2-2.1-5.9-18.7-6.2-37.9-8.9-51.9-10.4-53.6-1.9-2.2-4.5-2.2-6.5.1zM386 450c-2.8 2.8-3.6 6.9-1.9 9.9.8 1.3 5.7 5.5 10.9 9.3 7.7 5.6 10.1 6.8 13.3 6.8 5 0 8.7-3.5 8.7-8.3 0-4.4-.8-5.2-12.2-13-10.7-7.4-15-8.5-18.8-4.7zM626.9 450.3c-1.9 1.2-5.9 3.8-8.9 5.6-8.3 5-11 7.9-11 11.8 0 7.4 8.2 10.7 15.1 6 1.9-1.2 6.7-4.2 10.7-6.5 8.4-5 10-7.6 8.2-13.4-1.8-6.2-7.9-7.7-14.1-3.5zM368.6 517.9c-.9 1-1.9 3.4-2.2 5.3-.5 2.7-.1 4 1.7 6.1 2.3 2.5 2.8 2.6 15.2 2.9l12.9.3 2.4-2.8c3.1-3.7 3.2-8.6.1-11.5-2.1-2-3.4-2.2-15.4-2.2-11.4 0-13.2.2-14.7 1.9zM631.2 516.7c-2.2.9-4.4 6.3-3.7 9.3 1.1 5.2 3.6 6.4 14.1 6.8 10.5.5 13.4-.4 15.3-4.5 1.6-3.6 1.3-6.7-1-9.7-2-2.5-2.3-2.6-12.7-2.5-5.9 0-11.3.3-12 .6zM396.4 579c-12.1 7.9-13.4 9.1-13.4 13.3 0 3.5 4.9 8.7 8.2 8.7 2.7 0 21.3-11 24.1-14.2 2.6-3.1 2.2-9.3-.8-12.3-1.3-1.4-3.5-2.5-4.8-2.5-1.3 0-7.3 3.2-13.3 7zM609.5 574.5c-2.5 2.5-3.4 8.5-1.7 11.3.5.6 5.3 4.4 10.8 8.2 11.6 8.2 14.7 8.8 19.5 4.1 3.4-3.4 3.8-7.8 1.2-10.9-1-1.1-6.2-5-11.7-8.6-11-7.4-14.2-8.1-18.1-4.1zM445.6 619.9c-5.1 5.7-12.6 17.8-12.6 20.5 0 4.2 4.4 8.6 8.6 8.6 4.3 0 6.2-1.9 12.8-12.5 6.3-9.9 6.5-12.2 2-16.3-3.1-2.7-8.4-2.9-10.8-.3zM567.6 621.1c-1.4 1.7-2.6 3.9-2.6 4.9 0 2.8 8.8 16.6 12.7 20.1 1.9 1.6 4.3 2.9 5.4 2.9 2.9 0 8.9-6.2 8.9-9.2 0-2.5-9.5-17.1-13.1-20.1-3.4-2.8-8.3-2.2-11.3 1.4zM507.3 637.4c-2.6 2.3-2.8 3.1-3.2 11-.4 10.1.2 12.8 3.1 15.6 2.8 2.6 6.8 2.6 10.2-.1 2.5-2 2.6-2.3 2.6-13.4 0-11.1-.1-11.4-2.6-13.4-3.5-2.8-6.7-2.6-10.1.3z" />
</svg>
